<svg width="13" height="13" viewBox="0 0 13 13" fill="none" xmlns="http://www.w3.org/2000/svg">
<g clip-path="url(#clip0_617_2174)">
<path d="M6.77783 3.46606C6.51824 3.46606 6.26449 3.38909 6.04865 3.24487C5.83281 3.10065 5.66458 2.89567 5.56524 2.65584C5.4659 2.41601 5.43991 2.15211 5.49055 1.89751C5.5412 1.64291 5.6662 1.40904 5.84976 1.22549C6.03331 1.04193 6.26718 0.916927 6.52178 0.866284C6.77638 0.815641 7.04028 0.841633 7.2801 0.940973C7.51993 1.04031 7.72492 1.20854 7.86914 1.42438C8.01336 1.64022 8.09033 1.89398 8.09033 2.15357C8.08996 2.50155 7.95156 2.83517 7.7055 3.08123C7.45944 3.32729 7.12582 3.46569 6.77783 3.46606Z" fill="#BA181B" stroke="#BA181B" stroke-width="0.0625"/>
<path d="M10.9031 3.48478L10.8925 3.48759L10.8827 3.49064C10.8593 3.4972 10.8358 3.50423 10.8124 3.5115C10.3762 3.63947 8.25934 4.23619 6.76801 4.23619C5.38215 4.23619 3.45676 3.72056 2.84082 3.54548C2.77952 3.52178 2.71692 3.50159 2.65332 3.48502C2.20801 3.36783 1.90332 3.82017 1.90332 4.23361C1.90332 4.64306 2.27129 4.83806 2.64277 4.97798V4.98455L4.87449 5.68158C5.10254 5.769 5.16348 5.8583 5.19324 5.93564C5.29004 6.18384 5.2127 6.67533 5.18527 6.84689L5.04934 7.90158L4.29488 12.031C4.29254 12.0423 4.29043 12.0538 4.28855 12.0655L4.28316 12.0953C4.22879 12.4738 4.50676 12.841 5.03316 12.841C5.49254 12.841 5.69527 12.5239 5.78316 12.0924C5.87105 11.661 6.43941 8.39939 6.76754 8.39939C7.09566 8.39939 7.7716 12.0924 7.7716 12.0924C7.85949 12.5239 8.06223 12.841 8.5216 12.841C9.04941 12.841 9.32738 12.4721 9.2716 12.0924C9.26681 12.0605 9.26087 12.0288 9.25379 11.9973L8.48902 7.90205L8.35332 6.84736C8.25512 6.23306 8.3341 6.03009 8.36082 5.98252C8.36154 5.98139 8.36216 5.98022 8.36269 5.979C8.38801 5.93213 8.50332 5.82713 8.77238 5.72611L10.8649 4.99463C10.8777 4.9912 10.8904 4.98714 10.9029 4.98244C11.2779 4.84181 11.6529 4.64728 11.6529 4.23408C11.6529 3.82088 11.3484 3.36783 10.9031 3.48478Z" fill="#BA181B" stroke="#BA181B" stroke-width="0.0625"/>
</g>
<defs>
<clipPath id="clip0_617_2174">
<rect width="12" height="12" fill="white" transform="translate(0.777832 0.841064)"/>
</clipPath>
</defs>
</svg>
