<svg width="25" height="24" viewBox="0 0 25 24" fill="none" xmlns="http://www.w3.org/2000/svg">
<path d="M22.25 12C22.25 6.61547 17.8845 2.25 12.5 2.25C7.11547 2.25 2.75 6.61547 2.75 12C2.75 17.3845 7.11547 21.75 12.5 21.75C17.8845 21.75 22.25 17.3845 22.25 12ZM12.282 16.2825C12.2121 16.2131 12.1565 16.1307 12.1184 16.0398C12.0804 15.949 12.0606 15.8515 12.0602 15.753C12.0598 15.6545 12.0788 15.5569 12.1162 15.4657C12.1535 15.3745 12.2084 15.2916 12.2778 15.2217L14.7303 12.75H8.46875C8.26984 12.75 8.07907 12.671 7.93842 12.5303C7.79777 12.3897 7.71875 12.1989 7.71875 12C7.71875 11.8011 7.79777 11.6103 7.93842 11.4697C8.07907 11.329 8.26984 11.25 8.46875 11.25H14.7303L12.2778 8.77828C12.2084 8.70829 12.1535 8.62532 12.1162 8.53411C12.0789 8.4429 12.0599 8.34523 12.0604 8.24669C12.0608 8.14814 12.0806 8.05064 12.1188 7.95977C12.1569 7.86889 12.2125 7.78641 12.2825 7.71703C12.3525 7.64766 12.4355 7.59275 12.5267 7.55544C12.6179 7.51813 12.7155 7.49915 12.8141 7.49958C13.0131 7.50046 13.2036 7.58037 13.3438 7.72172L17.0652 11.4717C17.2046 11.6122 17.2828 11.8021 17.2828 12C17.2828 12.1979 17.2046 12.3878 17.0652 12.5283L13.3438 16.2783C13.2744 16.3484 13.1918 16.4041 13.1009 16.4422C13.01 16.4804 12.9124 16.5002 12.8138 16.5006C12.7151 16.501 12.6174 16.4819 12.5262 16.4445C12.4349 16.4071 12.352 16.352 12.282 16.2825Z" fill="#BA181B" stroke="#FFFDFD" stroke-width="0.0625"/>
</svg>
