<svg width="22" height="22" viewBox="0 0 22 22" fill="none" xmlns="http://www.w3.org/2000/svg">
<path d="M20.7561 10.8361L18.6852 8.77085L11.7819 1.88668C11.6523 1.75635 11.4758 1.68304 11.2918 1.68304C11.1077 1.68304 10.9312 1.75635 10.8016 1.88668L3.89835 8.77085L1.82737 10.8361C1.69668 10.9654 1.62317 11.1413 1.62317 11.3249C1.62317 11.5084 1.69668 11.6844 1.82737 11.8137C1.95699 11.944 2.13343 12.0173 2.3175 12.0173C2.50157 12.0173 2.67801 11.944 2.80763 11.8137L3.69815 10.9187V20.2743C3.69815 20.6545 4.00722 20.9627 4.38848 20.9627H18.195C18.5763 20.9627 18.8854 20.6545 18.8854 20.2743V10.9187L19.7759 11.8137C19.9055 11.944 20.0819 12.0173 20.266 12.0173C20.4501 12.0173 20.6265 11.944 20.7561 11.8137C20.8868 11.6844 20.9603 11.5084 20.9603 11.3249C20.9603 11.1413 20.8868 10.9654 20.7561 10.8361Z" stroke="#4E565B" stroke-width="2"/>
</svg>
