<svg width="22" height="22" viewBox="0 0 22 22" fill="none" xmlns="http://www.w3.org/2000/svg">
<path d="M20.6657 10.8362L18.559 8.77092L11.5367 1.88674C11.4049 1.75641 11.2254 1.68311 11.0382 1.68311C10.8509 1.68311 10.6714 1.75641 10.5396 1.88674L3.51729 8.77092L1.4106 10.8362C1.27766 10.9654 1.20288 11.1414 1.20288 11.3249C1.20288 11.5085 1.27766 11.6845 1.4106 11.8137C1.54245 11.944 1.72194 12.0174 1.90918 12.0174C2.09642 12.0174 2.27591 11.944 2.40776 11.8137L3.31364 10.9188V20.2744C3.31364 20.6546 3.62804 20.9628 4.01587 20.9628H18.0605C18.4483 20.9628 18.7627 20.6546 18.7627 20.2744V10.9188L19.6686 11.8137C19.8004 11.944 19.9799 12.0174 20.1671 12.0174C20.3544 12.0174 20.5339 11.944 20.6657 11.8137C20.7987 11.6845 20.8734 11.5085 20.8734 11.3249C20.8734 11.1414 20.7987 10.9654 20.6657 10.8362Z" stroke="#BA181B" stroke-width="2"/>
</svg>
