<svg width="21" height="21" viewBox="0 0 21 21" fill="none" xmlns="http://www.w3.org/2000/svg">
<path d="M12.4922 15.4999H8.49219C7.94219 15.4999 7.49219 15.0499 7.49219 14.4999C7.49219 13.9499 7.94219 13.4999 8.49219 13.4999H12.4922C13.0422 13.4999 13.4922 13.9499 13.4922 14.4999C13.4922 15.0499 13.0422 15.4999 12.4922 15.4999Z" fill="#BA181B"/>
<path d="M15.7222 20.4999H5.26221C3.33221 20.4999 1.76221 18.9299 1.76221 16.9999V9.49988C1.76221 8.94988 2.21221 8.49988 2.76221 8.49988H18.2222C18.7722 8.49988 19.2222 8.94988 19.2222 9.49988V16.9999C19.2222 18.9299 17.6522 20.4999 15.7222 20.4999ZM3.76221 10.4999V16.9999C3.76221 17.8299 4.43221 18.4999 5.26221 18.4999H15.7222C16.5522 18.4999 17.2222 17.8299 17.2222 16.9999V10.4999H3.76221Z" fill="#BA181B"/>
<path d="M17.4324 10.4999H3.55243C2.65243 10.4999 1.81243 10.0999 1.24243 9.41988C0.672429 8.72988 0.432429 7.82988 0.602429 6.94988L1.35243 2.94988C1.61243 1.52988 2.85243 0.499878 4.30243 0.499878H16.6924C18.1324 0.499878 19.3724 1.52988 19.6424 2.94988L20.3924 6.94988C20.5624 7.82988 20.3224 8.72988 19.7524 9.41988C19.1824 10.1099 18.3424 10.4999 17.4424 10.4999H17.4324ZM4.29243 2.49988C3.81243 2.49988 3.40243 2.83988 3.31243 3.31988L2.56243 7.31988C2.50243 7.60988 2.58243 7.90988 2.77243 8.13988C2.96243 8.36988 3.24243 8.49988 3.54243 8.49988H17.4324C17.7324 8.49988 18.0124 8.36988 18.2024 8.13988C18.3924 7.90988 18.4724 7.60988 18.4124 7.31988L17.6624 3.31988C17.5724 2.84988 17.1624 2.49988 16.6824 2.49988H4.29243Z" fill="#BA181B"/>
<path d="M13.4923 10.4999H7.49226C7.21226 10.4999 6.95226 10.3899 6.76226 10.1899C6.57226 9.98988 6.47226 9.71988 6.49226 9.43988L6.97226 1.43988C7.00226 0.909878 7.44226 0.499878 7.97226 0.499878H13.0123C13.5423 0.499878 13.9823 0.909878 14.0123 1.43988L14.4923 9.43988C14.5123 9.70988 14.4123 9.97988 14.2223 10.1899C14.0323 10.3899 13.7723 10.4999 13.4923 10.4999ZM8.55226 8.49988H12.4323L12.0723 2.49988H8.91226L8.55226 8.49988Z" fill="#BA181B"/>
</svg>
