<svg width="20" height="21" viewBox="0 0 20 21" fill="none" xmlns="http://www.w3.org/2000/svg">
<path d="M15.2222 20.5H4.76221C2.83221 20.5 1.26221 18.93 1.26221 17V9.5C1.26221 8.95 1.71221 8.5 2.26221 8.5H17.7222C18.2722 8.5 18.7222 8.95 18.7222 9.5V17C18.7222 18.93 17.1522 20.5 15.2222 20.5ZM3.26221 10.5V17C3.26221 17.83 3.93221 18.5 4.76221 18.5H15.2222C16.0522 18.5 16.7222 17.83 16.7222 17V10.5H3.26221Z" fill="#4E565B"/>
<path d="M16.9324 10.5H3.05243C2.15243 10.5 1.31243 10.1 0.742429 9.42C0.172429 8.73 -0.0675706 7.83 0.102429 6.95L0.852429 2.95C1.11243 1.53 2.35243 0.5 3.80243 0.5H16.1924C17.6324 0.5 18.8724 1.53 19.1424 2.95L19.8924 6.95C20.0624 7.83 19.8224 8.73 19.2524 9.42C18.6824 10.11 17.8424 10.5 16.9424 10.5H16.9324ZM3.79243 2.5C3.31243 2.5 2.90243 2.84 2.81243 3.32L2.06243 7.32C2.00243 7.61 2.08243 7.91 2.27243 8.14C2.46243 8.37 2.74243 8.5 3.04243 8.5H16.9324C17.2324 8.5 17.5124 8.37 17.7024 8.14C17.8924 7.91 17.9724 7.61 17.9124 7.32L17.1624 3.32C17.0724 2.85 16.6624 2.5 16.1824 2.5H3.79243Z" fill="#4E565B"/>
<path d="M12.9923 10.5H6.99226C6.71226 10.5 6.45226 10.39 6.26226 10.19C6.07226 9.99 5.97226 9.72 5.99226 9.44L6.47226 1.44C6.50226 0.91 6.94226 0.5 7.47226 0.5H12.5123C13.0423 0.5 13.4823 0.91 13.5123 1.44L13.9923 9.44C14.0123 9.71 13.9123 9.98 13.7223 10.19C13.5323 10.39 13.2723 10.5 12.9923 10.5ZM8.05226 8.5H11.9323L11.5723 2.5H8.41226L8.05226 8.5Z" fill="#4E565B"/>
</svg>
